# xmcd
# Track frame offsets:
# 150
# 20364
# 36267
# 55133
# 71481
# 89633
# 105346
# 124259
# 145905
# 162034
#
# Disc length: 2445 seconds
# Revision: 0
# Processed by: cddbd v1.5PL3 Copyright (c) Steve Scherf et al.
# Submitted via: VisiTrax 2.9.3.171 - For more info visit www.synapsa.com
#
DISCID=82098b0a
DTITLE=Eric Clapton - There's One in Every Crowd
DYEAR=1900
DGENRE=Rock/Pop
TTITLE0=We've Been Told (Jesus Is Coming Soon)
TTITLE1=Swing Low, Sweet Chariot
TTITLE2=Little Rachel
TTITLE3=Don't Blame Me
TTITLE4=The Sky Is Crying
TTITLE5=Singin' the Blues
TTITLE6=Better Make It Through Today
TTITLE7=Pretty Blue Eyes
TTITLE8=High
TTITLE9=Opposites
EXTD=
EXTT0=
EXTT1=
EXTT2=
EXTT3=
EXTT4=
EXTT5=
EXTT6=
EXTT7=
EXTT8=
EXTT9=
PLAYORDER=
